<?xml version="1.0" encoding="UTF-8"?>
<!DOCTYPE svg PUBLIC "-//W3C//DTD SVG 1.1//EN" "http://www.w3.org/Graphics/SVG/1.1/DTD/svg11.dtd">
<svg xmlns="http://www.w3.org/2000/svg" version="1.1" width="1000px" height="385px" style="shape-rendering:geometricPrecision; text-rendering:geometricPrecision; image-rendering:optimizeQuality; fill-rule:evenodd; clip-rule:evenodd" xmlns:xlink="http://www.w3.org/1999/xlink">
<g><path style="opacity:0.979" fill="#FFFFFF" d="M 116.5,75.5 C 167.618,75.4656 218.618,77.9656 269.5,83C 276.074,86.6082 278.241,92.1082 276,99.5C 274.412,104.052 271.245,106.885 266.5,108C 250.216,110.365 233.883,112.365 217.5,114C 194.104,115.282 170.771,117.115 147.5,119.5C 142.928,171.552 137.761,223.552 132,275.5C 130.547,285.98 127.547,295.98 123,305.5C 120.9,308.467 118.066,310.3 114.5,311C 106.337,312.05 98.3373,311.383 90.5,309C 85.5298,305.735 82.8632,301.068 82.5,295C 86.9099,275.374 90.0765,255.541 92,235.5C 95.206,198.488 98.206,161.488 101,124.5C 83.555,128.648 66.3883,133.814 49.5,140C 28.1772,144.008 13.5106,136.008 5.5,116C 7.03292,108.604 11.0329,102.937 17.5,99C 33.7133,91.0286 50.7133,85.362 68.5,82C 84.5401,79.017 100.54,76.8503 116.5,75.5 Z"/></g>
<g><path style="opacity:0.978" fill="#FFFFFF" d="M 582.5,79.5 C 598.208,80.2087 607.875,88.2087 611.5,103.5C 609.84,132.251 607.673,160.918 605,189.5C 627.255,169.873 650.421,168.706 674.5,186C 702.499,207.322 707.999,233.489 691,264.5C 665.947,303.079 630.78,317.913 585.5,309C 584.892,303.927 583.892,298.927 582.5,294C 587.349,291.41 592.349,289.076 597.5,287C 608.122,285.354 617.456,281.021 625.5,274C 636.622,264.561 645.455,253.394 652,240.5C 657.164,228.407 654.83,218.073 645,209.5C 631.763,219.435 622.263,232.268 616.5,248C 613.746,257.77 611.246,267.603 609,277.5C 605.214,283.06 599.88,285.727 593,285.5C 581.277,284.972 571.944,279.972 565,270.5C 562.34,266.186 560.673,261.519 560,256.5C 559.333,202.833 559.333,149.167 560,95.5C 560.964,91.5315 563.131,88.3649 566.5,86C 571.572,82.9562 576.906,80.7896 582.5,79.5 Z"/></g>
<g><path style="opacity:0.971" fill="#FFFFFF" d="M 795.5,114.5 C 830.008,114.507 854.508,130.173 869,161.5C 881.809,192.438 882.809,223.772 872,255.5C 863.967,277.083 849.8,293.25 829.5,304C 795.164,315.666 767.331,306.832 746,277.5C 723.927,241.569 720.594,203.902 736,164.5C 747.605,137.704 767.439,121.037 795.5,114.5 Z M 842.5,171.5 C 816.167,198.5 789.5,225.167 762.5,251.5C 752.904,227.822 752.071,203.822 760,179.5C 766.322,160.843 778.822,148.677 797.5,143C 810.81,141.436 822.143,145.436 831.5,155C 835.781,160.11 839.448,165.61 842.5,171.5 Z"/></g>
<g><path style="opacity:0.978" fill="#FFFFFF" d="M 417.5,142.5 C 438.019,140.532 449.352,149.699 451.5,170C 450.487,174.471 450.321,178.971 451,183.5C 467.368,166.585 487.535,158.418 511.5,159C 521.167,158.333 530.833,158.333 540.5,159C 551.754,164.802 552.42,171.802 542.5,180C 527.503,185.328 513.169,191.995 499.5,200C 481.738,214.43 468.572,232.263 460,253.5C 455.587,266.994 451.92,280.661 449,294.5C 440.844,302.998 431.011,305.498 419.5,302C 408.772,297.603 401.938,289.769 399,278.5C 398.333,239.833 398.333,201.167 399,162.5C 399.284,157.313 400.951,152.647 404,148.5C 408.12,145.414 412.62,143.414 417.5,142.5 Z"/></g>
<g><path style="opacity:0.978" fill="#FFFFFF" d="M 244.5,159.5 C 257.213,158.12 267.713,162.12 276,171.5C 277.517,177.08 277.851,182.747 277,188.5C 272.249,206.19 271.915,223.857 276,241.5C 276.799,245.759 278.632,249.425 281.5,252.5C 299.738,233.671 309.572,211.004 311,184.5C 311.48,178.339 314.647,174.505 320.5,173C 327.5,172.333 334.5,172.333 341.5,173C 353.48,175.089 358.48,182.255 356.5,194.5C 355.667,217.832 354.833,241.166 354,264.5C 353.248,275.509 350.915,286.175 347,296.5C 339.276,307.298 330.942,307.965 322,298.5C 319.595,292.45 317.095,286.45 314.5,280.5C 292.572,295.372 270.905,294.872 249.5,279C 230.713,259.997 221.713,236.997 222.5,210C 222.979,197.707 224.479,185.54 227,173.5C 230.67,165.984 236.503,161.317 244.5,159.5 Z"/></g>
<g><path style="opacity:0.993" fill="#e20000" d="M 842.5,171.5 C 846.773,178.133 849.606,185.466 851,193.5C 856.173,221.858 849.84,247.191 832,269.5C 810.495,287.848 790.161,286.515 771,265.5C 767.544,261.211 764.711,256.544 762.5,251.5C 789.5,225.167 816.167,198.5 842.5,171.5 Z"/></g>
<g><path style="opacity:0.631" fill="#FFFFFF" d="M 948.5,255.5 C 951.798,255.016 954.464,256.016 956.5,258.5C 955.652,260.283 954.319,260.783 952.5,260C 949.894,259.55 948.561,258.05 948.5,255.5 Z"/></g>
<g><path style="opacity:0.815" fill="#FFFFFF" d="M 986.5,261.5 C 989.685,261.02 992.519,261.686 995,263.5C 996.816,269.363 997.483,275.363 997,281.5C 995.386,284.825 993.386,285.158 991,282.5C 990.891,277.386 990.224,272.386 989,267.5C 986.667,268.5 985,270.167 984,272.5C 983.501,276.152 983.335,279.818 983.5,283.5C 981.533,283.739 979.699,283.406 978,282.5C 977.265,278.187 976.765,273.853 976.5,269.5C 974.418,269.472 972.584,270.139 971,271.5C 969.873,274.377 969.206,277.377 969,280.5C 967.435,283.894 965.435,284.228 963,281.5C 962.212,275.78 962.379,270.114 963.5,264.5C 965.736,263.188 967.736,263.521 969.5,265.5C 973.046,261.937 976.879,261.604 981,264.5C 983.12,263.86 984.954,262.86 986.5,261.5 Z"/></g>
<g><path style="opacity:0.813" fill="#FFFFFF" d="M 951.5,265.5 C 954.547,264.855 956.713,265.855 958,268.5C 958.669,273.513 959.003,278.513 959,283.5C 956.047,285.887 953.714,285.221 952,281.5C 950.966,276.098 950.8,270.764 951.5,265.5 Z"/></g>
<g><path style="opacity:0.712" fill="#FFFFFF" d="M 940.5,278.5 C 945.182,278.875 946.516,281.208 944.5,285.5C 937.242,286.574 935.909,284.241 940.5,278.5 Z"/></g>
</svg>
